<?xml version="1.0" standalone="no"?>
<svg xmlns:xlink="http://www.w3.org/1999/xlink" id="wave" style="transform:rotate(0deg); transition: 0.3s" viewBox="0 0 1440 310" version="1.1" xmlns="http://www.w3.org/2000/svg"><defs><linearGradient id="sw-gradient-0" x1="0" x2="0" y1="1" y2="0"><stop stop-color="rgba(230, 175, 208, 1)" offset="0%"/><stop stop-color="rgba(230, 175, 208, 1)" offset="100%"/></linearGradient></defs><path style="transform:translate(0, 0px); opacity:1" fill="url(#sw-gradient-0)" d="M0,31L20,36.2C40,41,80,52,120,67.2C160,83,200,103,240,129.2C280,155,320,186,360,206.7C400,227,440,238,480,232.5C520,227,560,207,600,191.2C640,176,680,165,720,170.5C760,176,800,196,840,201.5C880,207,920,196,960,180.8C1000,165,1040,145,1080,118.8C1120,93,1160,62,1200,87.8C1240,114,1280,196,1320,196.3C1360,196,1400,114,1440,108.5C1480,103,1520,176,1560,180.8C1600,186,1640,124,1680,118.8C1720,114,1760,165,1800,175.7C1840,186,1880,155,1920,165.3C1960,176,2000,227,2040,242.8C2080,258,2120,238,2160,222.2C2200,207,2240,196,2280,191.2C2320,186,2360,186,2400,201.5C2440,217,2480,248,2520,227.3C2560,207,2600,134,2640,129.2C2680,124,2720,186,2760,186C2800,186,2840,124,2860,93L2880,62L2880,310L2860,310C2840,310,2800,310,2760,310C2720,310,2680,310,2640,310C2600,310,2560,310,2520,310C2480,310,2440,310,2400,310C2360,310,2320,310,2280,310C2240,310,2200,310,2160,310C2120,310,2080,310,2040,310C2000,310,1960,310,1920,310C1880,310,1840,310,1800,310C1760,310,1720,310,1680,310C1640,310,1600,310,1560,310C1520,310,1480,310,1440,310C1400,310,1360,310,1320,310C1280,310,1240,310,1200,310C1160,310,1120,310,1080,310C1040,310,1000,310,960,310C920,310,880,310,840,310C800,310,760,310,720,310C680,310,640,310,600,310C560,310,520,310,480,310C440,310,400,310,360,310C320,310,280,310,240,310C200,310,160,310,120,310C80,310,40,310,20,310L0,310Z"/></svg>